<svg xmlns="http://www.w3.org/2000/svg" viewBox="85 177 370 170">
  <defs>
    <linearGradient id="curveFill" x1="0" y1="0" x2="0" y2="1">
      <stop offset="0%" stop-color="#5B8FA8" stop-opacity="0.08"/>
      <stop offset="100%" stop-color="#5B8FA8" stop-opacity="0.01"/>
    </linearGradient>
    <linearGradient id="approxFill" x1="0" y1="0" x2="0" y2="1">
      <stop offset="0%" stop-color="#7EB8D0" stop-opacity="0.10"/>
      <stop offset="100%" stop-color="#7EB8D0" stop-opacity="0.01"/>
    </linearGradient>
    <filter id="glow" x="-20%" y="-20%" width="140%" height="140%">
      <feGaussianBlur stdDeviation="2" result="blur"/>
      <feMerge>
        <feMergeNode in="blur"/>
        <feMergeNode in="SourceGraphic"/>
      </feMerge>
    </filter>
    <pattern id="dots" x="0" y="0" width="20" height="20" patternUnits="userSpaceOnUse">
      <circle cx="10" cy="10" r="0.4" fill="#555" opacity="0.15"/>
    </pattern>
  </defs>

  <!-- Dark background -->
  <rect x="85" y="177" width="370" height="170" fill="#0F1419" rx="6"/>
  <rect x="85" y="177" width="370" height="170" fill="url(#dots)" rx="6"/>

  <!-- X axis only -->
  <line x1="100" y1="310" x2="450" y2="310" stroke="#3A4550" stroke-width="0.8"/>

  <!-- Vertical dashed lines: 2^(n/4) spacing -->
  <!-- x=0 -->
  <line x1="100" y1="310" x2="100" y2="182.5" stroke="#78909C" stroke-width="0.6" stroke-dasharray="4,4"/>
  <!-- [0..1] -->
  <line x1="102.7" y1="310" x2="102.7" y2="182.5" stroke="#78909C" stroke-width="0.3" stroke-dasharray="1.5,6"/>
  <line x1="105.3" y1="310" x2="105.3" y2="182.5" stroke="#78909C" stroke-width="0.4" stroke-dasharray="2,5"/>
  <line x1="108.0" y1="310" x2="108.0" y2="182.5" stroke="#78909C" stroke-width="0.3" stroke-dasharray="1.5,6"/>
  <!-- [1..2] -->
  <line x1="110.7" y1="310" x2="110.7" y2="182.5" stroke="#78909C" stroke-width="0.6" stroke-dasharray="4,4"/>
  <line x1="112.7" y1="310" x2="112.7" y2="182.5" stroke="#78909C" stroke-width="0.3" stroke-dasharray="1.5,6"/>
  <line x1="115.1" y1="310" x2="115.1" y2="182.5" stroke="#78909C" stroke-width="0.4" stroke-dasharray="2,5"/>
  <line x1="117.9" y1="310" x2="117.9" y2="182.5" stroke="#78909C" stroke-width="0.3" stroke-dasharray="1.5,6"/>
  <!-- [2..4] -->
  <line x1="121.3" y1="310" x2="121.3" y2="182.5" stroke="#78909C" stroke-width="0.6" stroke-dasharray="4,4"/>
  <line x1="125.4" y1="310" x2="125.4" y2="182.5" stroke="#78909C" stroke-width="0.3" stroke-dasharray="1.5,6"/>
  <line x1="130.2" y1="310" x2="130.2" y2="182.5" stroke="#78909C" stroke-width="0.4" stroke-dasharray="2,5"/>
  <line x1="135.9" y1="310" x2="135.9" y2="182.5" stroke="#78909C" stroke-width="0.3" stroke-dasharray="1.5,6"/>
  <!-- [4..8] -->
  <line x1="142.7" y1="310" x2="142.7" y2="182.5" stroke="#78909C" stroke-width="0.6" stroke-dasharray="4,4"/>
  <line x1="150.8" y1="310" x2="150.8" y2="182.5" stroke="#78909C" stroke-width="0.3" stroke-dasharray="1.5,6"/>
  <line x1="160.4" y1="310" x2="160.4" y2="182.5" stroke="#78909C" stroke-width="0.4" stroke-dasharray="2,5"/>
  <line x1="171.8" y1="310" x2="171.8" y2="182.5" stroke="#78909C" stroke-width="0.3" stroke-dasharray="1.5,6"/>
  <!-- [8..16] -->
  <line x1="185.3" y1="310" x2="185.3" y2="182.5" stroke="#78909C" stroke-width="0.6" stroke-dasharray="4,4"/>
  <line x1="201.5" y1="310" x2="201.5" y2="182.5" stroke="#78909C" stroke-width="0.3" stroke-dasharray="1.5,6"/>
  <line x1="220.7" y1="310" x2="220.7" y2="182.5" stroke="#78909C" stroke-width="0.4" stroke-dasharray="2,5"/>
  <line x1="243.5" y1="310" x2="243.5" y2="182.5" stroke="#78909C" stroke-width="0.3" stroke-dasharray="1.5,6"/>
  <!-- [16..32] -->
  <line x1="270.7" y1="310" x2="270.7" y2="182.5" stroke="#78909C" stroke-width="0.6" stroke-dasharray="4,4"/>
  <line x1="303.0" y1="310" x2="303.0" y2="182.5" stroke="#78909C" stroke-width="0.3" stroke-dasharray="1.5,6"/>
  <line x1="341.4" y1="310" x2="341.4" y2="182.5" stroke="#78909C" stroke-width="0.4" stroke-dasharray="2,5"/>
  <line x1="387.1" y1="310" x2="387.1" y2="182.5" stroke="#78909C" stroke-width="0.3" stroke-dasharray="1.5,6"/>
  <!-- x=32 -->
  <line x1="441.3" y1="310" x2="441.3" y2="182.5" stroke="#78909C" stroke-width="0.6" stroke-dasharray="4,4"/>

  <!-- Bucket labels on x-axis -->
  <text x="100" y="322" text-anchor="middle" font-size="9" fill="#4A5A68" font-family="'SF Mono', 'Fira Code', 'JetBrains Mono', monospace">0</text>
  <text x="110.7" y="322" text-anchor="middle" font-size="9" fill="#4A5A68" font-family="'SF Mono', 'Fira Code', 'JetBrains Mono', monospace">1</text>
  <text x="121.3" y="322" text-anchor="middle" font-size="9" fill="#4A5A68" font-family="'SF Mono', 'Fira Code', 'JetBrains Mono', monospace">2</text>
  <text x="142.7" y="322" text-anchor="middle" font-size="9" fill="#4A5A68" font-family="'SF Mono', 'Fira Code', 'JetBrains Mono', monospace">4</text>
  <text x="185.3" y="322" text-anchor="middle" font-size="9" fill="#4A5A68" font-family="'SF Mono', 'Fira Code', 'JetBrains Mono', monospace">8</text>
  <text x="270.7" y="322" text-anchor="middle" font-size="9" fill="#4A5A68" font-family="'SF Mono', 'Fira Code', 'JetBrains Mono', monospace">16</text>
  <text x="441.3" y="322" text-anchor="middle" font-size="9" fill="#4A5A68" font-family="'SF Mono', 'Fira Code', 'JetBrains Mono', monospace">32</text>

  <!-- Smooth log-normal curve (filled area) — truncated at x=32 (px=441.4) -->
  <path d="M 105.3,309.7 L 108.3,307.8 L 111.2,302.5 L 114.2,293.7 L 117.1,282.1 L 120.1,268.9 L 123.0,255.4 L 126.0,242.5 L 128.9,230.6 L 131.9,220.3 L 134.8,211.7 L 137.8,204.8 L 140.7,199.5 L 143.7,195.7 L 146.6,193.3 L 149.6,192.1 L 152.5,191.9 L 155.5,192.5 L 158.4,193.9 L 161.3,195.9 L 164.3,198.3 L 167.2,201.2 L 170.2,204.3 L 173.1,207.6 L 176.1,211.0 L 179.0,214.6 L 182.0,218.2 L 184.9,221.8 L 187.9,225.4 L 190.8,228.9 L 193.8,232.4 L 196.7,235.8 L 199.7,239.1 L 202.6,242.3 L 205.6,245.4 L 208.5,248.4 L 211.5,251.3 L 214.4,254.1 L 217.4,256.7 L 220.3,259.3 L 223.3,261.7 L 226.2,264.0 L 229.2,266.3 L 232.1,268.4 L 235.0,270.4 L 238.0,272.3 L 240.9,274.1 L 243.9,275.9 L 246.8,277.5 L 249.8,279.1 L 252.7,280.6 L 255.7,282.0 L 258.6,283.4 L 261.6,284.6 L 264.5,285.9 L 267.5,287.0 L 270.4,288.1 L 273.4,289.2 L 276.3,290.1 L 279.3,291.1 L 282.2,292.0 L 285.2,292.8 L 288.1,293.6 L 291.1,294.4 L 294.0,295.1 L 297.0,295.8 L 299.9,296.5 L 302.9,297.1 L 305.8,297.7 L 308.8,298.2 L 311.7,298.8 L 314.6,299.3 L 317.6,299.8 L 320.5,300.2 L 323.5,300.7 L 326.4,301.1 L 329.4,301.5 L 332.3,301.9 L 335.3,302.2 L 338.2,302.6 L 341.2,302.9 L 344.1,303.2 L 347.1,303.5 L 350.0,303.8 L 353.0,304.0 L 355.9,304.3 L 358.9,304.5 L 361.8,304.8 L 364.8,305.0 L 367.7,305.2 L 370.7,305.4 L 373.6,305.6 L 376.6,305.8 L 379.5,306.0 L 382.5,306.1 L 385.4,306.3 L 388.3,306.4 L 391.3,306.6 L 394.2,306.7 L 397.2,306.8 L 400.1,307.0 L 403.1,307.1 L 406.0,307.2 L 409.0,307.3 L 411.9,307.4 L 414.9,307.5 L 417.8,307.6 L 420.8,307.7 L 423.7,307.8 L 426.7,307.9 L 429.6,308.0 L 432.6,308.0 L 435.5,308.1 L 438.5,308.2 L 441.4,308.3 L 441.4,310 L 105.3,310 Z"
    fill="url(#curveFill)" stroke="none"/>

  <!-- Smooth log-normal curve (line) -->
  <path d="M 105.3,309.7 L 108.3,307.8 L 111.2,302.5 L 114.2,293.7 L 117.1,282.1 L 120.1,268.9 L 123.0,255.4 L 126.0,242.5 L 128.9,230.6 L 131.9,220.3 L 134.8,211.7 L 137.8,204.8 L 140.7,199.5 L 143.7,195.7 L 146.6,193.3 L 149.6,192.1 L 152.5,191.9 L 155.5,192.5 L 158.4,193.9 L 161.3,195.9 L 164.3,198.3 L 167.2,201.2 L 170.2,204.3 L 173.1,207.6 L 176.1,211.0 L 179.0,214.6 L 182.0,218.2 L 184.9,221.8 L 187.9,225.4 L 190.8,228.9 L 193.8,232.4 L 196.7,235.8 L 199.7,239.1 L 202.6,242.3 L 205.6,245.4 L 208.5,248.4 L 211.5,251.3 L 214.4,254.1 L 217.4,256.7 L 220.3,259.3 L 223.3,261.7 L 226.2,264.0 L 229.2,266.3 L 232.1,268.4 L 235.0,270.4 L 238.0,272.3 L 240.9,274.1 L 243.9,275.9 L 246.8,277.5 L 249.8,279.1 L 252.7,280.6 L 255.7,282.0 L 258.6,283.4 L 261.6,284.6 L 264.5,285.9 L 267.5,287.0 L 270.4,288.1 L 273.4,289.2 L 276.3,290.1 L 279.3,291.1 L 282.2,292.0 L 285.2,292.8 L 288.1,293.6 L 291.1,294.4 L 294.0,295.1 L 297.0,295.8 L 299.9,296.5 L 302.9,297.1 L 305.8,297.7 L 308.8,298.2 L 311.7,298.8 L 314.6,299.3 L 317.6,299.8 L 320.5,300.2 L 323.5,300.7 L 326.4,301.1 L 329.4,301.5 L 332.3,301.9 L 335.3,302.2 L 338.2,302.6 L 341.2,302.9 L 344.1,303.2 L 347.1,303.5 L 350.0,303.8 L 353.0,304.0 L 355.9,304.3 L 358.9,304.5 L 361.8,304.8 L 364.8,305.0 L 367.7,305.2 L 370.7,305.4 L 373.6,305.6 L 376.6,305.8 L 379.5,306.0 L 382.5,306.1 L 385.4,306.3 L 388.3,306.4 L 391.3,306.6 L 394.2,306.7 L 397.2,306.8 L 400.1,307.0 L 403.1,307.1 L 406.0,307.2 L 409.0,307.3 L 411.9,307.4 L 414.9,307.5 L 417.8,307.6 L 420.8,307.7 L 423.7,307.8 L 426.7,307.9 L 429.6,308.0 L 432.6,308.0 L 435.5,308.1 L 438.5,308.2 L 441.4,308.3"
    fill="none" stroke="#546E7A" stroke-width="1.2" stroke-linecap="round" opacity="0.7"/>

  <!-- Piecewise linear approximation (filled area) -->
  <path d="M 100,310 L 110.7,303.8 L 121.3,263.2 L 142.7,196.8 L 185.3,222.3 L 270.7,288.2 L 441.3,308.3 L 441.3,310 L 100,310 Z"
    fill="url(#approxFill)" stroke="none"/>

  <!-- Piecewise linear approximation (line segments) with glow -->
  <path d="M 100,310 L 110.7,303.8 L 121.3,263.2 L 142.7,196.8 L 185.3,222.3 L 270.7,288.2 L 441.3,308.3"
    fill="none" stroke="#80CBC4" stroke-width="1.5" stroke-linecap="round" stroke-linejoin="round" filter="url(#glow)"/>

  <!-- Dots at bucket boundaries -->
  <circle cx="100" cy="310" r="3" fill="none" stroke="#80CBC4" stroke-width="0.8"/>
  <circle cx="100" cy="310" r="1.2" fill="#80CBC4"/>
  <circle cx="110.7" cy="303.8" r="3" fill="none" stroke="#80CBC4" stroke-width="0.8"/>
  <circle cx="110.7" cy="303.8" r="1.2" fill="#80CBC4"/>
  <circle cx="121.3" cy="263.2" r="3" fill="none" stroke="#80CBC4" stroke-width="0.8"/>
  <circle cx="121.3" cy="263.2" r="1.2" fill="#80CBC4"/>
  <circle cx="142.7" cy="196.8" r="3" fill="none" stroke="#80CBC4" stroke-width="0.8"/>
  <circle cx="142.7" cy="196.8" r="1.2" fill="#80CBC4"/>
  <circle cx="185.3" cy="222.3" r="3" fill="none" stroke="#80CBC4" stroke-width="0.8"/>
  <circle cx="185.3" cy="222.3" r="1.2" fill="#80CBC4"/>
  <circle cx="270.7" cy="288.2" r="3" fill="none" stroke="#80CBC4" stroke-width="0.8"/>
  <circle cx="270.7" cy="288.2" r="1.2" fill="#80CBC4"/>
  <circle cx="441.3" cy="308.3" r="3" fill="none" stroke="#80CBC4" stroke-width="0.8"/>
  <circle cx="441.3" cy="308.3" r="1.2" fill="#80CBC4"/>

  <!-- Title -->
  <text x="270" y="340" text-anchor="middle" font-size="16" fill="#78909C" font-family="'SF Mono', 'Fira Code', 'JetBrains Mono', monospace" font-weight="400" letter-spacing="3">base2histogram</text>

</svg>
